<?xml version="1.0" encoding="UTF-8"?>
<svg width="133px" height="111px" viewBox="0 0 133 111" version="1.1" xmlns="http://www.w3.org/2000/svg" xmlns:xlink="http://www.w3.org/1999/xlink">
    <!-- Generator: Sketch Beta 53 (72499) - https://sketchapp.com -->
    <title>Heart Icon</title>
    <desc>Created with Sketch Beta.</desc>
    <g id="Heart-Icon" stroke="none" stroke-width="1" fill="none" fill-rule="evenodd">
        <g id="Brand-/-Logo-/-_Green-Heart" transform="translate(0.000000, 0.091251)" fill="#fff">
            <path d="M63.575029,110.41119 L63.566617,110.385628 C60.9490856,109.073453 0,77.875212 0,38.2557603 C0,21.2812699 8.66855742,8.37111419 23.7835044,2.81851172 C38.2479241,-2.48415263 55.3761412,0.418537765 65.9682407,9.43335118 C77.0229997,0.175700164 93.863807,-2.70000827 108.070259,2.74324627 C122.73236,8.37111419 131.144352,21.3153524 131.144352,38.2813222 C131.144352,78.109529 70.641102,109.107536 68.0656306,110.41119 C66.649612,111.121242 64.9896456,111.121242 63.575029,110.41119 Z M62.9553457,44.5524967 L61.5365231,43.3652906 C60.2508903,42.3115743 58.3652022,42.514649 57.3263212,43.8168834 C56.2860383,45.1191178 56.4851221,47.0838302 57.7707548,48.1361264 L62.9553457,52.2622355 L62.9553457,56.8690494 L58.0020846,52.8814004 C56.7444918,51.8049624 54.8644117,51.9668541 53.8016967,53.2406864 C52.7403838,54.5145188 52.9002116,56.4188768 54.1564024,57.4938947 C54.2012663,57.5336576 54.2489343,57.5705803 54.2952002,57.6060829 L62.9553457,64.6043501 L62.9553457,72.6989368 C58.1338724,69.679798 51.2584712,64.0363089 49.8130107,55.883498 C48.1614563,46.6840712 53.7498228,35.5973276 65.9275827,23.5733161 C71.8384089,29.5590499 83.5927652,43.231801 81.9173769,55.9743846 C81.0915997,62.3634277 76.70054,67.9657337 68.8998198,72.6989368 L68.8998198,64.6043501 L68.9166437,64.5873089 L77.8151289,57.305021 C79.0348677,56.1845598 79.1273996,54.2759415 78.0226247,53.0404519 C77.0019697,51.9001093 75.2971394,51.7197562 74.0661846,52.6215216 L68.9657137,56.8023046 L68.9657137,52.2622355 L74.1503046,48.0814525 C75.4359373,47.0291562 75.6350211,45.1191178 74.5947381,43.8168834 C73.5558572,42.514649 71.670169,42.3115743 70.3845363,43.3652906 L68.9082318,44.5524967 L68.9082318,36.3244203 C68.9082318,34.6600597 67.5763331,33.3109619 65.9317887,33.3109619 C64.2886463,33.3109619 62.9553457,34.6600597 62.9553457,36.3244203 L62.9553457,44.5524967 L62.9553457,44.5524967 Z M27.242235,12.4255081 L27.233823,12.4425493 C20.8280914,14.7928196 10.095792,21.2471875 10.095792,38.2898428 C10.095792,55.331078 25.5822687,71.4194241 38.5773938,81.931026 C47.1309873,88.7588809 56.2439783,94.8355013 65.8210308,100.092722 C75.3658374,94.8355013 84.4451804,88.7503603 92.9553119,81.9054641 C105.783599,71.4535065 121.082208,55.3822017 121.082208,38.2898428 C121.082208,21.1974839 110.696202,14.6749511 104.511986,12.300539 C94.1526188,8.3285111 81.5794952,10.2513305 73.3245274,16.6247524 C80.4817303,23.9070403 94.1526188,40.3049688 91.931853,57.305021 C90.4541464,68.6516435 82.4375184,77.8666914 68.0992786,84.6817654 L66.1252645,85.6190333 L64.0951705,84.7825927 C63.2441574,84.4389278 43.2250192,76.1696684 39.9233125,57.6813483 C37.6688987,44.9543858 43.9680785,31.1396245 58.6217679,16.5736287 C53.496061,12.6016008 46.3781141,10.3848201 39.0722993,10.3848201 C35.0415533,10.3663588 31.0388473,11.0565288 27.242235,12.4255081 Z" id="Shape"></path>
        </g>
    </g>
</svg>